# xmcd
#
# Track frame offsets:
#	150
#	11362
#	23267
#	38375
#	52682
#	66422
#	79835
#	92902
#	104610
#	117177
#	126400
#	139037
#
# Disc length: 2014 seconds
# Revision: 0
# Processed by: cddbd v1.5.2PL0 Copyright (c) Steve Scherf et al.
# Submitted via: dBpowerAMP V12.0
#
DISCID=8f07dc0c
DTITLE=Otis Redding - Sings soul ballads
DYEAR=1965
DGENRE=Soul
TTITLE0=That's how strong my love is
TTITLE1=Chained and bound
TTITLE2=Woman, lover, a friend
TTITLE3=Your one and only man
TTITLE4=Nothing can change this love
TTITLE5=It's too late
TTITLE6=For your precious love
TTITLE7=I want to thank you
TTITLE8=Come to me
TTITLE9=Home in your heart
TTITLE10=Keep your arms around me
TTITLE11=Mr. Pitiful
EXTD=
EXTT0=
EXTT1=
EXTT2=
EXTT3=
EXTT4=
EXTT5=
EXTT6=
EXTT7=
EXTT8=
EXTT9=
EXTT10=
EXTT11=
PLAYORDER=
